<?xml version="1.0" encoding="UTF-8"?>
<!--
Additional SVG icons
-->
<svg xmlns="http://www.w3.org/2000/svg" style="display: none">
  <!-- modified from https://phosphoricons.com?q=%22square-half%22&size=20&weight=%22fill%22 -->
  <symbol id="editor-preview-right" fill="currentColor" viewBox="40 40 176 176">
    <path d="M200 40H56a16 16 0 0 0-16 16v144a16 16 0 0 0 16 16h144a16 16 0 0 0 16-16V56a16 16 0 0 0-16-16M56 56h72v144H56Z"/>
  </symbol>
  <symbol id="editor-preview-left" fill="currentColor" viewBox="40 40 176 176" transform-origin="center center" transform="scale(-1 1)">
    <path d="M200 40H56a16 16 0 0 0-16 16v144a16 16 0 0 0 16 16h144a16 16 0 0 0 16-16V56a16 16 0 0 0-16-16M56 56h72v144H56Z"/>
  </symbol>
  <symbol id="editor-preview-top" fill="currentColor" viewBox="40 40 176 176" transform-origin="center center" transform="rotate(180)">
    <path d="M200 40H56a16 16 0 0 0-16 16v144a16 16 0 0 0 16 16h144a16 16 0 0 0 16-16V56a16 16 0 0 0-16-16m0 16v72H56V56Z"/>
  </symbol>
  <symbol id="editor-preview-bottom" fill="currentColor" viewBox="40 40 176 176">
    <path d="M200 40H56a16 16 0 0 0-16 16v144a16 16 0 0 0 16 16h144a16 16 0 0 0 16-16V56a16 16 0 0 0-16-16m0 16v72H56V56Z"/>
  </symbol>

  <!-- modified from https://fonts.google.com/icons?selected=Material%20Symbols%20Outlined%3Apreview%3AFILL%400%3Bwght%40400%3BGRAD%400%3Bopsz%4020 -->
  <symbol id="editor-preview-show" fill="currentColor" viewBox="144 -816 672 672"><path d="M216-144q-29.7 0-50.85-21.15T144-216v-528q0-29.7 21.15-50.85T216-816h528q29.7 0 50.85 21.15T816-744v528q0 29.7-21.15 50.85T744-144zm0-72h528v-456H216zm263.88-84Q406-300 348-340.5T264-444q26-63 84.12-103.5 58.11-40.5 132-40.5Q554-588 612-547.5T696-444q-26 63-84.12 103.5-58.11 40.5-132 40.5m.12-48q53 0 95.88-25.44T643-444q-24.24-45.12-67.12-70.56T480-540t-95.88 25.44T317-444q24.24 45.12 67.12 70.56T480-348m0-36q25 0 42.5-17.5T540-444t-17.5-42.5T480-504t-42.5 17.5T420-444t17.5 42.5T480-384"/></symbol>

  <!-- modified from https://fonts.google.com/icons?selected=Material%20Symbols%20Rounded%3Apreview_off%3AFILL%400%3Bwght%40400%3BGRAD%400%3Bopsz%4020 -->
  <symbol id="editor-preview-hide" fill="currentColor" viewBox="83.2 -652.8 569.6 569.6"><path d="M384-240q-59 0-106-32t-67-83q14-35 40-61t61-40l30 30q-28 8-51 27t-37 44q19 36 53 56t77 21q23 0 44-7t38-17l27 28q-23 16-51 25t-58 9m150-75-27-27 4-7 3-6q-14-27-38-46t-54-26l-43-43q59 0 108 32t70 83q-4 11-10 21t-13 19M173-115q-24 0-41-17t-17-41v-398l-23-23q-9-9-9-20t9-20 21-9 21 9l501 502q9 9 9 20t-9 20-20 9-20-9l-24-23zm0-58h341L173-514zm480-24-58-57v-245H350L197-653h398q24 0 41 17t17 41z"/></symbol>

</svg>